<?xml version="1.0" encoding="iso-8859-1"?>
<!-- Uploaded to: SVG Repo, www.svgrepo.com, Generator: SVG Repo Mixer Tools -->
<svg version="1.1" id="Layer_1" xmlns="http://www.w3.org/2000/svg" xmlns:xlink="http://www.w3.org/1999/xlink" 
	 viewBox="0 0 512 512" xml:space="preserve">
<polygon style="fill:#DDD1C2;" points="480.589,137.685 31.411,137.685 31.411,106.399 244.167,35.076 275.721,35.076 
	480.589,106.399 "/>
<polygon style="fill:#C7B299;" points="362.274,137.685 31.411,137.685 31.411,106.399 244.167,35.076 275.721,35.076 
	362.274,106.399 "/>
<rect x="54.844" y="137.947" style="fill:#998675;" width="402.313" height="23.665"/>
<rect x="31.178" y="106.4" style="fill:#CCCCCC;" width="449.639" height="31.558"/>
<rect x="31.178" y="106.4" style="fill:#B3B3B3;" width="331.313" height="31.558"/>
<g>
	<rect x="401.936" y="185.283" style="fill:#CCCCCC;" width="23.665" height="228.767"/>
	<rect x="86.401" y="185.283" style="fill:#CCCCCC;" width="23.665" height="228.767"/>
	<rect x="165.285" y="185.283" style="fill:#CCCCCC;" width="23.665" height="228.767"/>
	<rect x="244.169" y="185.283" style="fill:#CCCCCC;" width="23.665" height="228.767"/>
	<rect x="323.052" y="185.283" style="fill:#CCCCCC;" width="23.665" height="228.767"/>
</g>
<g>
	<rect x="70.622" y="414.05" style="fill:#C7B299;" width="55.22" height="23.665"/>
	<rect x="149.726" y="414.05" style="fill:#C7B299;" width="55.493" height="23.665"/>
	<rect x="228.39" y="414.05" style="fill:#C7B299;" width="55.22" height="23.665"/>
	<rect x="306.781" y="414.05" style="fill:#C7B299;" width="55.493" height="23.665"/>
	<rect x="386.356" y="414.05" style="fill:#C7B299;" width="55.493" height="23.665"/>
	<rect x="70.151" y="161.62" style="fill:#C7B299;" width="55.493" height="23.665"/>
	<rect x="149.726" y="161.62" style="fill:#C7B299;" width="55.493" height="23.665"/>
	<rect x="228.39" y="161.62" style="fill:#C7B299;" width="55.356" height="23.665"/>
	<rect x="306.781" y="161.62" style="fill:#C7B299;" width="55.493" height="23.665"/>
	<rect x="386.356" y="161.62" style="fill:#C7B299;" width="55.493" height="23.665"/>
</g>
<polyline style="fill:#DDD1C2;" points="38.74,501.006 38.74,469.595 473.26,469.595 473.26,501.006 "/>
<polyline style="fill:#C7B299;" points="38.74,501.006 38.74,469.595 370.65,469.595 370.65,501.006 "/>
<polyline style="fill:#CCCCCC;" points="54.446,469.595 54.446,438.184 457.554,438.184 457.554,469.595 "/>
<polyline style="fill:#B3B3B3;" points="54.446,469.595 54.446,438.184 339.239,438.184 339.239,469.595 "/>
<rect y="492.63" width="512" height="15.706"/>
<polygon points="480.589,485.301 464.883,485.301 464.883,476.924 47.117,476.924 47.117,485.301 31.411,485.301 31.411,461.219 
	480.589,461.219 "/>
<polygon points="464.883,453.89 449.178,453.89 449.178,445.513 62.822,445.513 62.822,453.89 47.117,453.89 47.117,429.808 
	464.883,429.808 "/>
<path d="M70.151,193.178h8.376v212.548h-8.376v15.706h55.493v-15.706h-7.329V193.178h7.329v-15.706H70.151V193.178z
	 M102.609,193.178v212.548h-8.376V193.178H102.609z"/>
<path d="M149.726,193.178h7.329v212.548h-7.329v15.706h55.493v-15.706h-8.376V193.178h8.376v-15.706h-55.493V193.178z
	 M181.137,193.178v212.548h-8.376V193.178H181.137z"/>
<path d="M228.254,193.178h8.376v212.548h-8.376v15.706h55.493v-15.706h-8.376V193.178h8.376v-15.706h-55.493V193.178z
	 M259.665,193.178v212.548h-7.329V193.178H259.665z"/>
<path d="M306.781,193.178h8.376v212.548h-8.376v15.706h55.493v-15.706h-7.329V193.178h7.329v-15.706h-55.493V193.178z
	 M339.239,193.178v212.548h-8.376V193.178H339.239z"/>
<path d="M441.849,193.178v-15.706h-55.493v15.706h7.329v212.548h-7.329v15.706h55.493v-15.706h-8.376V193.178H441.849z
	 M409.391,405.726V193.178h8.376v212.548H409.391z"/>
<path d="M488.965,100.799L277.037,27.746h-8.996V3.665h-15.706v24.082h-9.438L23.035,100.731v45.33h24.082v23.035h417.767v-23.035
	h24.082V100.799z M449.178,153.391H62.822v-7.329h386.356V153.391z M38.74,130.356V114.65h95.28V98.945H78.268l167.169-55.493
	h28.968l160.987,55.493h-49.036v15.706h86.904v15.706H38.74z"/>
<rect x="149.726" y="98.945" width="220.924" height="15.706"/>
<g>
	<rect x="252.335" y="66.487" style="fill:#FFFFFF;" width="15.706" height="15.706"/>
	<rect x="220.924" y="66.487" style="fill:#FFFFFF;" width="15.706" height="15.706"/>
	<rect x="283.746" y="66.487" style="fill:#FFFFFF;" width="15.706" height="15.706"/>
</g>
</svg>